<svg width="121" height="113" viewBox="0 0 121 113" fill="none" xmlns="http://www.w3.org/2000/svg">
<path d="M54.8123 4.93293C56.6438 -0.519761 64.3562 -0.519777 66.1877 4.93291L76.3017 35.0432C77.1224 37.4866 79.4119 39.1327 81.9894 39.1327H114.284C120.144 39.1327 122.529 46.6719 117.734 50.0417L91.9538 68.1598C89.7807 69.6871 88.8703 72.4614 89.716 74.9792L99.6434 104.534C101.488 110.027 95.2466 114.685 90.5057 111.353L63.95 92.6901C61.88 91.2354 59.12 91.2354 57.05 92.6901L30.4943 111.353C25.7534 114.685 19.5115 110.027 21.3566 104.534L31.284 74.9792C32.1297 72.4614 31.2194 69.6871 29.0462 68.1598L3.2663 50.0417C-1.5285 46.6719 0.855775 39.1327 6.71628 39.1327H39.0106C41.5881 39.1327 43.8776 37.4866 44.6983 35.0432L54.8123 4.93293Z" fill="#231F20"/>
</svg>
